<?xml version="1.0" encoding="UTF-8" standalone="no"?>
<!-- Created with Inkscape (http://www.inkscape.org/) -->

<svg
   xmlns:dc="http://purl.org/dc/elements/1.1/"
   xmlns:cc="http://creativecommons.org/ns#"
   xmlns:rdf="http://www.w3.org/1999/02/22-rdf-syntax-ns#"
   xmlns:svg="http://www.w3.org/2000/svg"
   xmlns="http://www.w3.org/2000/svg"
   xmlns:sodipodi="http://sodipodi.sourceforge.net/DTD/sodipodi-0.dtd"
   xmlns:inkscape="http://www.inkscape.org/namespaces/inkscape"
   width="446.67599"
   height="546.22144"
   id="svg5328"
   version="1.1"
   inkscape:version="0.48.3.1 r9886"
   sodipodi:docname="New document 5">
  <defs
     id="defs5330">
    <clipPath
       clipPathUnits="userSpaceOnUse"
       id="clipPath1880">
      <path
         inkscape:connector-curvature="0"
         d="M 0,792 612,792 612,0 0,0 0,792 z"
         id="path1882" />
    </clipPath>
  </defs>
  <sodipodi:namedview
     id="base"
     pagecolor="#ffffff"
     bordercolor="#666666"
     borderopacity="1.0"
     inkscape:pageopacity="0.0"
     inkscape:pageshadow="2"
     inkscape:zoom="0.35"
     inkscape:cx="217.58364"
     inkscape:cy="321.78474"
     inkscape:document-units="px"
     inkscape:current-layer="layer1"
     showgrid="false"
     fit-margin-top="0"
     fit-margin-left="0"
     fit-margin-right="0"
     fit-margin-bottom="0"
     inkscape:window-width="451"
     inkscape:window-height="445"
     inkscape:window-x="78"
     inkscape:window-y="78"
     inkscape:window-maximized="0" />
  <metadata
     id="metadata5333">
    <rdf:RDF>
      <cc:Work
         rdf:about="">
        <dc:format>image/svg+xml</dc:format>
        <dc:type
           rdf:resource="http://purl.org/dc/dcmitype/StillImage" />
        <dc:title></dc:title>
      </cc:Work>
    </rdf:RDF>
  </metadata>
  <g
     inkscape:label="Layer 1"
     inkscape:groupmode="layer"
     id="layer1"
     transform="translate(-157.41636,-529.25144)">
    <g
       transform="matrix(13.146567,0,0,-13.146567,-6094.6811,1808.8331)"
       id="g1876">
      <g
         id="g1878"
         clip-path="url(#clipPath1880)">
        <g
           id="g1884"
           transform="translate(495.8037,73.9971)">
          <path
             inkscape:connector-curvature="0"
             d="m 0,0 c -0.401,-1.438 -1.719,-2.501 -3.284,-2.501 -1.568,0 -2.885,1.063 -3.288,2.501 -0.081,0.29 -0.126,0.596 -0.126,0.91 0,0.318 0.045,0.622 0.126,0.912 0.403,1.44 1.72,2.501 3.288,2.501 C -1.719,4.323 -0.401,3.262 0,1.822 0.08,1.532 0.128,1.228 0.128,0.91 0.128,0.596 0.08,0.29 0,0"
             style="fill:#ffffff;fill-opacity:1;fill-rule:nonzero;stroke:none"
             id="path1886" />
        </g>
        <g
           id="g1888"
           transform="translate(492.5166,62.7227)">
          <path
             inkscape:connector-curvature="0"
             d="m 0,0 c -6.412,0 -11.68,4.979 -12.149,11.274 l 7.003,0 C -4.715,8.823 -2.574,6.955 0,6.955 c 2.575,0 4.714,1.868 5.146,4.319 l 7.006,0 C 11.684,4.979 6.414,0 0,0"
             style="fill:#ffffff;fill-opacity:1;fill-rule:nonzero;stroke:none"
             id="path1890" />
        </g>
        <g
           id="g1892"
           transform="translate(492.5195,87.0938)">
          <path
             inkscape:connector-curvature="0"
             d="m 0,0 c 6.411,0 11.681,-4.979 12.149,-11.274 l -7.005,0 C 4.712,-8.823 2.574,-6.955 0,-6.955 c -2.575,0 -4.714,-1.868 -5.149,-4.319 l -7.003,0 C -11.683,-4.979 -6.415,0 0,0"
             style="fill:#ed1a3a;fill-opacity:1;fill-rule:nonzero;stroke:none"
             id="path1894" />
        </g>
        <g
           id="g1896"
           transform="translate(492.5195,62.7227)">
          <path
             inkscape:connector-curvature="0"
             d="m 0,0 c 6.411,0 11.681,4.979 12.149,11.274 l -3.502,0 C 8.314,4.979 4.563,0 0,0"
             style="fill:#bbbdbf;fill-opacity:1;fill-rule:nonzero;stroke:none"
             id="path1898" />
        </g>
        <g
           id="g1900"
           transform="translate(492.5195,87.0938)">
          <path
             inkscape:connector-curvature="0"
             d="m 0,0 c -6.415,0 -11.683,-4.979 -12.152,-11.274 l 3.503,0 C -8.316,-4.979 -4.567,0 0,0"
             style="fill:#b00c28;fill-opacity:1;fill-rule:nonzero;stroke:none"
             id="path1902" />
        </g>
        <g
           id="g1904"
           transform="translate(492.5195,73.1484)">
          <path
             inkscape:connector-curvature="0"
             d="m 0,0 c -1.021,0 -1.853,0.829 -1.853,1.852 0,1.022 0.832,1.85 1.853,1.85 1.02,0 1.85,-0.828 1.85,-1.85 C 1.85,0.829 1.02,0 0,0 M 3.284,0.849 C 2.883,-0.589 1.565,-1.652 0,-1.652 c -1.567,0 -2.885,1.063 -3.288,2.501 -0.081,0.29 -0.126,0.595 -0.126,0.91 0,0.317 0.045,0.622 0.126,0.912 C -2.885,4.11 -1.567,5.172 0,5.172 1.565,5.172 2.883,4.11 3.284,2.671 3.364,2.381 3.412,2.076 3.412,1.759 3.412,1.444 3.364,1.139 3.284,0.849 M 0,13.945 c 6.411,0 11.681,-4.978 12.149,-11.274 l -7.005,0 C 4.712,5.122 2.574,6.99 0,6.99 -2.575,6.99 -4.714,5.122 -5.149,2.671 l -7.003,0 C -11.683,8.967 -6.415,13.945 0,13.945 m 0,-24.371 c -6.415,0 -11.683,4.979 -12.152,11.275 l 7.003,0 c 0.435,-2.449 2.574,-4.32 5.149,-4.32 2.574,0 4.712,1.871 5.144,4.32 l 7.005,0 C 11.681,-5.447 6.411,-10.426 0,-10.426 m 0,26.192 c -7.723,0 -14.007,-6.283 -14.007,-14.007 0,-7.722 6.284,-14.003 14.007,-14.003 7.72,0 14.004,6.281 14.004,14.003 C 14.004,9.483 7.72,15.766 0,15.766"
             style="fill:#000000;fill-opacity:1;fill-rule:nonzero;stroke:none"
             id="path1906" />
        </g>
        <g
           id="g1908"
           transform="translate(476.3613,66.0488)">
          <path
             inkscape:connector-curvature="0"
             d="M 0,0 C 0.185,-0.337 0.533,-0.383 1.302,0.038 1.854,0.344 2.265,0.684 2.028,1.114 1.812,1.509 1.358,1.423 0.73,1.078 0.093,0.729 -0.218,0.399 0,0 M 2.655,1.459 C 2.982,0.864 2.903,-0.044 1.703,-0.704 0.453,-1.39 -0.331,-0.888 -0.628,-0.345 -0.967,0.273 -0.847,1.174 0.353,1.833 1.438,2.432 2.313,2.082 2.655,1.459"
             style="fill:#000000;fill-opacity:1;fill-rule:nonzero;stroke:none"
             id="path1910" />
        </g>
        <g
           id="g1912"
           transform="translate(479.4482,64.1582)">
          <path
             inkscape:connector-curvature="0"
             d="M 0,0 C 0.179,-0.214 0.403,-0.25 0.625,-0.067 0.848,0.117 0.844,0.313 0.65,0.549 L 0.488,0.743 -0.166,0.202 0,0 z M 0.447,1.783 1.206,0.865 C 1.684,0.287 1.63,-0.311 1.169,-0.691 0.854,-0.954 0.534,-0.981 0.118,-0.763 c 0.07,-0.366 -0.48,-0.986 -0.88,-1.719 l -0.548,0.663 0.401,0.588 c 0.464,0.681 0.479,0.764 0.259,1.031 l -1.188,-0.98 -0.526,0.638 2.811,2.325"
             style="fill:#000000;fill-opacity:1;fill-rule:nonzero;stroke:none"
             id="path1914" />
        </g>
        <g
           id="g1916"
           transform="translate(481.5693,59.6719)">
          <path
             inkscape:connector-curvature="0"
             d="m 0,0 c -0.422,0.02 -0.838,0.144 -1.182,0.433 -0.69,0.574 -0.701,1.579 -0.026,2.386 0.721,0.862 1.767,1.039 2.495,0.428 0.25,-0.208 0.435,-0.478 0.557,-0.84 L 1.359,1.824 C 1.279,2.231 1.182,2.438 0.932,2.648 0.489,3.018 -0.047,2.895 -0.553,2.286 -0.992,1.762 -1.098,1.258 -0.736,0.957 -0.65,0.886 -0.532,0.827 -0.405,0.806 L -0.011,1.277 -0.327,1.54 0.067,2.013 1.02,1.217 0,0"
             style="fill:#000000;fill-opacity:1;fill-rule:nonzero;stroke:none"
             id="path1918" />
        </g>
        <g
           id="g1920"
           transform="translate(484.0605,59.3086)">
          <path
             inkscape:connector-curvature="0"
             d="M 0,0 0.406,1.293 0.396,1.299 -0.507,0.285 0,0 z M 0.513,2.372 1.262,1.949 0.29,-1.717 l -0.699,0.396 0.224,0.745 -0.716,0.403 -0.526,-0.573 -0.698,0.392 2.638,2.726 z"
             style="fill:#000000;fill-opacity:1;fill-rule:nonzero;stroke:none"
             id="path1922" />
        </g>
        <g
           id="g1924"
           transform="translate(486.3408,60.6934)">
          <path
             inkscape:connector-curvature="0"
             d="M 0,0 0.729,-0.248 1.001,-2.52 1.012,-2.522 1.676,-0.57 2.413,-0.821 1.238,-4.275 0.556,-4.043 0.268,-1.671 0.258,-1.667 -0.436,-3.706 -1.173,-3.456 0,0 z"
             style="fill:#000000;fill-opacity:1;fill-rule:nonzero;stroke:none"
             id="path1926" />
        </g>
        <g
           id="g1928"
           transform="translate(489.292,59.7969)">
          <path
             inkscape:connector-curvature="0"
             d="M 0,0 0.814,-0.148 0.154,-3.737 -0.66,-3.589 0,0 z"
             style="fill:#000000;fill-opacity:1;fill-rule:nonzero;stroke:none"
             id="path1930" />
        </g>
        <g
           id="g1932"
           transform="translate(491.6426,58.8604)">
          <path
             inkscape:connector-curvature="0"
             d="M 0,0 -1.159,0.063 -1.122,0.693 1.162,0.565 -0.299,-2.377 0.992,-2.448 0.957,-3.077 -1.47,-2.942 0,0 z"
             style="fill:#000000;fill-opacity:1;fill-rule:nonzero;stroke:none"
             id="path1934" />
        </g>
        <g
           id="g1936"
           transform="translate(493.1338,59.4463)">
          <path
             inkscape:connector-curvature="0"
             d="M 0,0 2.115,0.219 2.18,-0.408 0.889,-0.542 0.976,-1.387 2.179,-1.262 2.243,-1.889 1.043,-2.014 1.137,-2.917 2.475,-2.778 2.541,-3.404 0.378,-3.63 0,0 z"
             style="fill:#000000;fill-opacity:1;fill-rule:nonzero;stroke:none"
             id="path1938" />
        </g>
        <g
           id="g1940"
           transform="translate(497.4912,57.1084)">
          <path
             inkscape:connector-curvature="0"
             d="M 0,0 C 0.574,0.168 0.624,0.667 0.418,1.369 0.225,2.029 -0.091,2.495 -0.639,2.335 L -0.868,2.266 -0.189,-0.058 0,0 z m -1.837,2.624 1.035,0.303 C 0.296,3.248 0.968,2.498 1.218,1.646 1.451,0.843 1.349,-0.247 0.267,-0.564 l -1.078,-0.314 -1.026,3.502"
             style="fill:#000000;fill-opacity:1;fill-rule:nonzero;stroke:none"
             id="path1942" />
        </g>
        <g
           id="g1944"
           transform="translate(501.709,60.6318)">
          <path
             inkscape:connector-curvature="0"
             d="M 0,0 C 0.316,0.207 0.309,0.418 0.164,0.644 0.042,0.83 -0.17,0.969 -0.471,0.774 L -0.693,0.628 -0.203,-0.13 0,0 z M -1.732,0.707 -0.74,1.35 C -0.027,1.812 0.582,1.52 0.863,1.083 1.078,0.751 1.282,0.082 0.432,-0.47 L 0.141,-0.659 0.946,-1.905 0.252,-2.354 -1.732,0.707"
             style="fill:#000000;fill-opacity:1;fill-rule:nonzero;stroke:none"
             id="path1946" />
        </g>
        <g
           id="g1948"
           transform="translate(502.1953,62.8408)">
          <path
             inkscape:connector-curvature="0"
             d="M 0,0 0.615,0.557 2.624,-1.661 3.615,-0.764 4.056,-1.251 2.451,-2.704 0,0 z"
             style="fill:#000000;fill-opacity:1;fill-rule:nonzero;stroke:none"
             id="path1950" />
        </g>
        <g
           id="g1952"
           transform="translate(506.5605,64.0654)">
          <path
             inkscape:connector-curvature="0"
             d="M 0,0 -1.211,0.605 -1.219,0.597 -0.364,-0.454 0,0 z M -2.261,0.885 -1.724,1.557 1.74,0.012 1.239,-0.614 0.54,-0.274 0.026,-0.917 0.508,-1.528 0.007,-2.154 -2.261,0.885 z"
             style="fill:#000000;fill-opacity:1;fill-rule:nonzero;stroke:none"
             id="path1954" />
        </g>
        <g
           id="g1956"
           transform="translate(507.6211,66.207)">
          <path
             inkscape:connector-curvature="0"
             d="m 0,0 -2.224,0.067 0.426,0.778 1.249,-0.057 -0.765,0.939 0.423,0.771 1.3,-1.752 L 1.871,-0.056 1.463,-0.8 0,0 z"
             style="fill:#000000;fill-opacity:1;fill-rule:nonzero;stroke:none"
             id="path1958" />
        </g>
        <g
           id="g1960"
           transform="translate(476.3613,66.0488)">
          <path
             inkscape:connector-curvature="0"
             d="M 0,0 C 0.185,-0.337 0.533,-0.383 1.302,0.038 1.854,0.344 2.265,0.684 2.028,1.114 1.812,1.509 1.358,1.423 0.73,1.078 0.093,0.729 -0.218,0.399 0,0 M 2.655,1.459 C 2.982,0.864 2.903,-0.044 1.703,-0.704 0.453,-1.39 -0.331,-0.888 -0.628,-0.345 -0.967,0.273 -0.847,1.174 0.353,1.833 1.438,2.432 2.313,2.082 2.655,1.459"
             style="fill:#000000;fill-opacity:1;fill-rule:nonzero;stroke:none"
             id="path1962" />
        </g>
        <g
           id="g1964"
           transform="translate(479.4482,64.1582)">
          <path
             inkscape:connector-curvature="0"
             d="M 0,0 C 0.179,-0.214 0.403,-0.25 0.625,-0.067 0.848,0.117 0.844,0.313 0.65,0.549 L 0.488,0.743 -0.166,0.202 0,0 z M 0.447,1.783 1.206,0.865 C 1.684,0.287 1.63,-0.311 1.169,-0.691 0.854,-0.954 0.534,-0.981 0.118,-0.763 c 0.07,-0.366 -0.48,-0.986 -0.88,-1.719 l -0.548,0.663 0.401,0.588 c 0.464,0.681 0.479,0.764 0.259,1.031 l -1.188,-0.98 -0.526,0.638 2.811,2.325"
             style="fill:#000000;fill-opacity:1;fill-rule:nonzero;stroke:none"
             id="path1966" />
        </g>
        <g
           id="g1968"
           transform="translate(481.5693,59.6719)">
          <path
             inkscape:connector-curvature="0"
             d="m 0,0 c -0.422,0.02 -0.838,0.144 -1.182,0.433 -0.69,0.574 -0.701,1.579 -0.026,2.386 0.721,0.862 1.767,1.039 2.495,0.428 0.25,-0.208 0.435,-0.478 0.557,-0.84 L 1.359,1.824 C 1.279,2.231 1.182,2.438 0.932,2.648 0.489,3.018 -0.047,2.895 -0.553,2.286 -0.992,1.762 -1.098,1.258 -0.736,0.957 -0.65,0.886 -0.532,0.827 -0.405,0.806 L -0.011,1.277 -0.327,1.54 0.067,2.013 1.02,1.217 0,0"
             style="fill:#000000;fill-opacity:1;fill-rule:nonzero;stroke:none"
             id="path1970" />
        </g>
        <g
           id="g1972"
           transform="translate(484.0605,59.3086)">
          <path
             inkscape:connector-curvature="0"
             d="M 0,0 0.406,1.293 0.396,1.299 -0.507,0.285 0,0 z M 0.513,2.372 1.262,1.949 0.29,-1.717 l -0.699,0.396 0.224,0.745 -0.716,0.403 -0.526,-0.573 -0.698,0.392 2.638,2.726 z"
             style="fill:#000000;fill-opacity:1;fill-rule:nonzero;stroke:none"
             id="path1974" />
        </g>
        <g
           id="g1976"
           transform="translate(486.3408,60.6934)">
          <path
             inkscape:connector-curvature="0"
             d="M 0,0 0.729,-0.248 1.001,-2.52 1.012,-2.522 1.676,-0.57 2.413,-0.821 1.238,-4.275 0.556,-4.043 0.268,-1.671 0.258,-1.667 -0.436,-3.706 -1.173,-3.456 0,0 z"
             style="fill:#000000;fill-opacity:1;fill-rule:nonzero;stroke:none"
             id="path1978" />
        </g>
        <g
           id="g1980"
           transform="translate(489.292,59.7969)">
          <path
             inkscape:connector-curvature="0"
             d="M 0,0 0.814,-0.148 0.154,-3.737 -0.66,-3.589 0,0 z"
             style="fill:#000000;fill-opacity:1;fill-rule:nonzero;stroke:none"
             id="path1982" />
        </g>
        <g
           id="g1984"
           transform="translate(491.6426,58.8604)">
          <path
             inkscape:connector-curvature="0"
             d="M 0,0 -1.159,0.063 -1.122,0.693 1.162,0.565 -0.299,-2.377 0.992,-2.448 0.957,-3.077 -1.47,-2.942 0,0 z"
             style="fill:#000000;fill-opacity:1;fill-rule:nonzero;stroke:none"
             id="path1986" />
        </g>
        <g
           id="g1988"
           transform="translate(493.1338,59.4463)">
          <path
             inkscape:connector-curvature="0"
             d="M 0,0 2.115,0.219 2.18,-0.408 0.889,-0.542 0.976,-1.387 2.179,-1.262 2.243,-1.889 1.043,-2.014 1.137,-2.917 2.475,-2.778 2.541,-3.404 0.378,-3.63 0,0 z"
             style="fill:#000000;fill-opacity:1;fill-rule:nonzero;stroke:none"
             id="path1990" />
        </g>
        <g
           id="g1992"
           transform="translate(497.4912,57.1084)">
          <path
             inkscape:connector-curvature="0"
             d="M 0,0 C 0.574,0.168 0.624,0.667 0.418,1.369 0.225,2.029 -0.091,2.495 -0.639,2.335 L -0.868,2.266 -0.189,-0.058 0,0 z m -1.837,2.624 1.035,0.303 C 0.296,3.248 0.968,2.498 1.218,1.646 1.451,0.843 1.349,-0.247 0.267,-0.564 l -1.078,-0.314 -1.026,3.502"
             style="fill:#000000;fill-opacity:1;fill-rule:nonzero;stroke:none"
             id="path1994" />
        </g>
        <g
           id="g1996"
           transform="translate(501.709,60.6318)">
          <path
             inkscape:connector-curvature="0"
             d="M 0,0 C 0.316,0.207 0.309,0.418 0.164,0.644 0.042,0.83 -0.17,0.969 -0.471,0.774 L -0.693,0.628 -0.203,-0.13 0,0 z M -1.732,0.707 -0.74,1.35 C -0.027,1.812 0.582,1.52 0.863,1.083 1.078,0.751 1.282,0.082 0.432,-0.47 L 0.141,-0.659 0.946,-1.905 0.252,-2.354 -1.732,0.707"
             style="fill:#000000;fill-opacity:1;fill-rule:nonzero;stroke:none"
             id="path1998" />
        </g>
        <g
           id="g2000"
           transform="translate(502.1953,62.8408)">
          <path
             inkscape:connector-curvature="0"
             d="M 0,0 0.615,0.557 2.624,-1.661 3.615,-0.764 4.056,-1.251 2.451,-2.704 0,0 z"
             style="fill:#000000;fill-opacity:1;fill-rule:nonzero;stroke:none"
             id="path2002" />
        </g>
        <g
           id="g2004"
           transform="translate(506.5605,64.0654)">
          <path
             inkscape:connector-curvature="0"
             d="M 0,0 -1.211,0.605 -1.219,0.597 -0.364,-0.454 0,0 z M -2.261,0.885 -1.724,1.557 1.74,0.012 1.239,-0.614 0.54,-0.274 0.026,-0.917 0.508,-1.528 0.007,-2.154 -2.261,0.885 z"
             style="fill:#000000;fill-opacity:1;fill-rule:nonzero;stroke:none"
             id="path2006" />
        </g>
        <g
           id="g2008"
           transform="translate(507.6211,66.207)">
          <path
             inkscape:connector-curvature="0"
             d="m 0,0 -2.224,0.067 0.426,0.778 1.249,-0.057 -0.765,0.939 0.423,0.771 1.3,-1.752 L 1.871,-0.056 1.463,-0.8 0,0 z"
             style="fill:#000000;fill-opacity:1;fill-rule:nonzero;stroke:none"
             id="path2010" />
        </g>
        <g
           id="g2012"
           transform="translate(479.0088,87.6865)">
          <path
             inkscape:connector-curvature="0"
             d="m 0,0 -0.231,-0.245 -0.92,0.867 0.256,0.271 C -0.55,1.259 -0.22,1.141 0.01,0.926 0.283,0.669 0.364,0.386 0,0 m 1.924,-2.277 -1.513,1.425 0.334,0.356 C 1.719,0.536 1.218,1.38 0.815,1.76 0.289,2.257 -0.639,2.452 -1.453,1.587 l -1.136,-1.202 3.718,-3.506 0.795,0.844"
             style="fill:#000000;fill-opacity:1;fill-rule:nonzero;stroke:none"
             id="path2014" />
        </g>
        <g
           id="g2016"
           transform="translate(481.875,91.6318)">
          <path
             inkscape:connector-curvature="0"
             d="M 0,0 C 0.578,0.371 1.095,-0.17 1.568,-0.913 2.231,-1.946 2.2,-2.436 1.748,-2.728 1.212,-3.068 0.721,-2.665 0.173,-1.808 -0.369,-0.965 -0.529,-0.339 0,0 m 2.286,-3.57 c 0.733,0.467 1.36,1.606 0.282,3.29 C 1.535,1.33 0.259,1.357 -0.542,0.845 -1.379,0.308 -1.782,-0.947 -0.849,-2.407 0.186,-4.02 1.457,-4.104 2.286,-3.57"
             style="fill:#000000;fill-opacity:1;fill-rule:nonzero;stroke:none"
             id="path2018" />
        </g>
        <g
           id="g2020"
           transform="translate(487.2363,89.665)">
          <path
             inkscape:connector-curvature="0"
             d="m 0,0 -0.743,2.354 0.014,0.004 2.14,-1.912 1.235,0.388 -2.324,2.075 0.48,2.7 L -0.304,5.261 -0.777,2.514 -0.794,2.51 -1.539,4.872 -2.643,4.523 -1.105,-0.349 0,0 z"
             style="fill:#000000;fill-opacity:1;fill-rule:nonzero;stroke:none"
             id="path2022" />
        </g>
        <g
           id="g2024"
           transform="translate(492.4004,97.332)">
          <path
             inkscape:connector-curvature="0"
             d="M 0,0 -1.313,-0.075 -1.869,-1.357 -1.31,-1.326 0,0 z"
             style="fill:#000000;fill-opacity:1;fill-rule:nonzero;stroke:none"
             id="path2026" />
        </g>
        <g
           id="g2028"
           transform="translate(493.2412,90.6367)">
          <path
             inkscape:connector-curvature="0"
             d="m 0,0 -0.051,0.883 -1.881,-0.109 -0.074,1.27 1.69,0.097 -0.05,0.881 L -2.055,2.925 -2.123,4.111 -0.307,4.216 -0.358,5.099 -3.332,4.927 -3.039,-0.174 0,0 z"
             style="fill:#000000;fill-opacity:1;fill-rule:nonzero;stroke:none"
             id="path2030" />
        </g>
        <g
           id="g2032"
           transform="translate(496.498,93.1504)">
          <path
             inkscape:connector-curvature="0"
             d="m 0,0 -0.698,2.303 -1.025,0.222 -1.089,-4.991 1.069,-0.231 0.694,3.193 0.017,-0.003 0.564,-2.108 0.221,-0.046 L 1.145,0.017 1.158,0.015 0.464,-3.18 1.529,-3.412 2.618,1.579 1.596,1.803 0,0 z"
             style="fill:#000000;fill-opacity:1;fill-rule:nonzero;stroke:none"
             id="path2034" />
        </g>
        <g
           id="g2036"
           transform="translate(500.5732,89.4092)">
          <path
             inkscape:connector-curvature="0"
             d="M 0,0 C -0.554,0.311 -0.428,0.935 0.071,1.822 0.56,2.696 1.036,3.132 1.584,2.827 2.185,2.489 1.95,1.779 1.52,1.01 0.919,-0.06 0.471,-0.262 0,0 M 2.546,0.426 C 3.482,2.097 2.902,3.235 2.074,3.701 1.205,4.187 -0.091,3.953 -0.938,2.438 c -0.937,-1.67 -0.412,-2.83 0.45,-3.312 0.757,-0.425 2.058,-0.442 3.034,1.3"
             style="fill:#000000;fill-opacity:1;fill-rule:nonzero;stroke:none"
             id="path2038" />
        </g>
        <g
           id="g2040"
           transform="translate(502.9785,86.5547)">
          <path
             inkscape:connector-curvature="0"
             d="M 0,0 2.12,2.143 2.131,2.133 1.042,-1.031 1.759,-1.741 5.354,1.891 4.578,2.657 2.547,0.604 2.536,0.616 3.582,3.643 2.817,4.399 -0.776,0.769 0,0 z"
             style="fill:#000000;fill-opacity:1;fill-rule:nonzero;stroke:none"
             id="path2042" />
        </g>
        <g
           id="g2044"
           transform="translate(509.2578,87.3457)">
          <path
             inkscape:connector-curvature="0"
             d="M 0,0 C 0.215,-0.281 0.161,-0.687 -0.122,-0.901 -0.405,-1.116 -0.81,-1.062 -1.024,-0.78 -1.238,-0.496 -1.185,-0.094 -0.903,0.121 -0.62,0.338 -0.216,0.282 0,0 m -1.149,-0.874 c 0.269,-0.353 0.769,-0.419 1.121,-0.151 0.353,0.267 0.419,0.767 0.152,1.12 -0.27,0.35 -0.77,0.42 -1.119,0.151 -0.355,-0.267 -0.422,-0.767 -0.154,-1.12"
             style="fill:#000000;fill-opacity:1;fill-rule:nonzero;stroke:none"
             id="path2046" />
        </g>
        <g
           id="g2048"
           transform="translate(508.8584,87.2793)">
          <path
             inkscape:connector-curvature="0"
             d="m 0,0 0.095,-0.124 c 0.072,-0.095 0.077,-0.164 0.018,-0.21 L -0.069,-0.289 -0.183,-0.141 0,0 z m -0.567,-0.434 0.276,0.212 0.028,-0.035 c 0.06,-0.08 0.056,-0.149 -0.024,-0.317 l -0.067,-0.14 0.129,-0.169 0.09,0.215 c 0.044,0.105 0.059,0.162 0.036,0.23 l 0.003,0.003 c 0.099,-0.101 0.226,-0.114 0.326,-0.039 0.102,0.078 0.14,0.213 0.016,0.371 l -0.243,0.322 -0.675,-0.513 0.105,-0.14"
             style="fill:#000000;fill-opacity:1;fill-rule:nonzero;stroke:none"
             id="path2050" />
        </g>
        <g
           id="g2052"
           transform="translate(479.0088,87.6865)">
          <path
             inkscape:connector-curvature="0"
             d="m 0,0 -0.231,-0.245 -0.92,0.867 0.256,0.271 C -0.55,1.259 -0.22,1.141 0.01,0.926 0.283,0.669 0.364,0.386 0,0 m 1.924,-2.277 -1.513,1.425 0.334,0.356 C 1.719,0.536 1.218,1.38 0.815,1.76 0.289,2.257 -0.639,2.452 -1.453,1.587 l -1.136,-1.202 3.718,-3.506 0.795,0.844"
             style="fill:#000000;fill-opacity:1;fill-rule:nonzero;stroke:none"
             id="path2054" />
        </g>
        <g
           id="g2056"
           transform="translate(481.875,91.6318)">
          <path
             inkscape:connector-curvature="0"
             d="M 0,0 C 0.578,0.371 1.095,-0.17 1.568,-0.913 2.231,-1.946 2.2,-2.436 1.748,-2.728 1.212,-3.068 0.721,-2.665 0.173,-1.808 -0.369,-0.965 -0.529,-0.339 0,0 m 2.286,-3.57 c 0.733,0.467 1.36,1.606 0.282,3.29 C 1.535,1.33 0.259,1.357 -0.542,0.845 -1.379,0.308 -1.782,-0.947 -0.849,-2.407 0.186,-4.02 1.457,-4.104 2.286,-3.57"
             style="fill:#000000;fill-opacity:1;fill-rule:nonzero;stroke:none"
             id="path2058" />
        </g>
        <g
           id="g2060"
           transform="translate(487.2363,89.665)">
          <path
             inkscape:connector-curvature="0"
             d="m 0,0 -0.743,2.354 0.014,0.004 2.14,-1.912 1.235,0.388 -2.324,2.075 0.48,2.7 L -0.304,5.261 -0.777,2.514 -0.794,2.51 -1.539,4.872 -2.643,4.523 -1.105,-0.349 0,0 z"
             style="fill:#000000;fill-opacity:1;fill-rule:nonzero;stroke:none"
             id="path2062" />
        </g>
        <g
           id="g2064"
           transform="translate(492.4004,97.332)">
          <path
             inkscape:connector-curvature="0"
             d="M 0,0 -1.313,-0.075 -1.869,-1.357 -1.31,-1.326 0,0 z"
             style="fill:#000000;fill-opacity:1;fill-rule:nonzero;stroke:none"
             id="path2066" />
        </g>
        <g
           id="g2068"
           transform="translate(493.2412,90.6367)">
          <path
             inkscape:connector-curvature="0"
             d="m 0,0 -0.051,0.883 -1.881,-0.109 -0.074,1.27 1.69,0.097 -0.05,0.881 L -2.055,2.925 -2.123,4.111 -0.307,4.216 -0.358,5.099 -3.332,4.927 -3.039,-0.174 0,0 z"
             style="fill:#000000;fill-opacity:1;fill-rule:nonzero;stroke:none"
             id="path2070" />
        </g>
        <g
           id="g2072"
           transform="translate(496.498,93.1504)">
          <path
             inkscape:connector-curvature="0"
             d="m 0,0 -0.698,2.303 -1.025,0.222 -1.089,-4.991 1.069,-0.231 0.694,3.193 0.017,-0.003 0.564,-2.108 0.221,-0.046 L 1.145,0.017 1.158,0.015 0.464,-3.18 1.529,-3.412 2.618,1.579 1.596,1.803 0,0 z"
             style="fill:#000000;fill-opacity:1;fill-rule:nonzero;stroke:none"
             id="path2074" />
        </g>
        <g
           id="g2076"
           transform="translate(500.5732,89.4092)">
          <path
             inkscape:connector-curvature="0"
             d="M 0,0 C -0.554,0.311 -0.428,0.935 0.071,1.822 0.56,2.696 1.036,3.132 1.584,2.827 2.185,2.489 1.95,1.779 1.52,1.01 0.919,-0.06 0.471,-0.262 0,0 M 2.546,0.426 C 3.482,2.097 2.902,3.235 2.074,3.701 1.205,4.187 -0.091,3.953 -0.938,2.438 c -0.937,-1.67 -0.412,-2.83 0.45,-3.312 0.757,-0.425 2.058,-0.442 3.034,1.3"
             style="fill:#000000;fill-opacity:1;fill-rule:nonzero;stroke:none"
             id="path2078" />
        </g>
        <g
           id="g2080"
           transform="translate(502.9785,86.5547)">
          <path
             inkscape:connector-curvature="0"
             d="M 0,0 2.12,2.143 2.131,2.133 1.042,-1.031 1.759,-1.741 5.354,1.891 4.578,2.657 2.547,0.604 2.536,0.616 3.582,3.643 2.817,4.399 -0.776,0.769 0,0 z"
             style="fill:#000000;fill-opacity:1;fill-rule:nonzero;stroke:none"
             id="path2082" />
        </g>
        <g
           id="g2084"
           transform="translate(509.2578,87.3457)">
          <path
             inkscape:connector-curvature="0"
             d="M 0,0 C 0.215,-0.281 0.161,-0.687 -0.122,-0.901 -0.405,-1.116 -0.81,-1.062 -1.024,-0.78 -1.238,-0.496 -1.185,-0.094 -0.903,0.121 -0.62,0.338 -0.216,0.282 0,0 m -1.149,-0.874 c 0.269,-0.353 0.769,-0.419 1.121,-0.151 0.353,0.267 0.419,0.767 0.152,1.12 -0.27,0.35 -0.77,0.42 -1.119,0.151 -0.355,-0.267 -0.422,-0.767 -0.154,-1.12"
             style="fill:#000000;fill-opacity:1;fill-rule:nonzero;stroke:none"
             id="path2086" />
        </g>
        <g
           id="g2088"
           transform="translate(508.8584,87.2793)">
          <path
             inkscape:connector-curvature="0"
             d="m 0,0 0.095,-0.124 c 0.072,-0.095 0.077,-0.164 0.018,-0.21 L -0.069,-0.289 -0.183,-0.141 0,0 z m -0.567,-0.434 0.276,0.212 0.028,-0.035 c 0.06,-0.08 0.056,-0.149 -0.024,-0.317 l -0.067,-0.14 0.129,-0.169 0.09,0.215 c 0.044,0.105 0.059,0.162 0.036,0.23 l 0.003,0.003 c 0.099,-0.101 0.226,-0.114 0.326,-0.039 0.102,0.078 0.14,0.213 0.016,0.371 l -0.243,0.322 -0.675,-0.513 0.105,-0.14"
             style="fill:#000000;fill-opacity:1;fill-rule:nonzero;stroke:none"
             id="path2090" />
        </g>
      </g>
    </g>
  </g>
</svg>
